<svg width="112" height="112" viewBox="0 0 112 112" fill="none" xmlns="http://www.w3.org/2000/svg">
<circle cx="56" cy="56" r="56" fill="#EDEDED"/>
<path d="M70.2038 62.9263L70.0895 63.0419" stroke="black" stroke-width="3" stroke-linecap="round"/>
<g filter="url(#filter0_i_420_1355)">
<path d="M78.8569 48.3944C76.1955 39.3627 68.3157 27.3205 68.3157 27.3205C68.3157 27.3205 71.0292 35.7712 56.8872 51.7219C50.6772 58.905 45.3022 64.6092 45.3022 69.6268C45.3022 74.0635 47.1014 77.3758 50.8861 79.9789C53.8083 81.9889 59.6512 81.7023 64.8193 79.9789C69.568 78.0247 73.9986 75.1364 77.187 69.574C81.2665 62.4569 80.9424 55.4719 78.8569 48.3944Z" fill="#004994"/>
<path d="M78.9516 49.3231C76.5351 40.6404 69.3807 29.0634 69.3807 29.0634C69.3807 29.0634 71.8444 37.1875 59.0041 52.522C53.3658 59.4276 48.4855 64.9115 48.4855 69.7352C48.4855 74.0004 50.119 77.1847 53.5553 79.6873C56.2086 81.6197 61.5137 81.344 66.2061 79.6873C70.5178 77.8086 74.5404 75.0318 77.4353 69.6844C81.1395 62.8423 80.8452 56.1272 78.9516 49.3231Z" fill="#074380"/>
<path d="M79.1262 50.2828C77.0187 42.0941 70.7791 31.176 70.7791 31.176C70.7791 31.176 72.9278 38.8379 61.7294 53.2997C56.8121 59.8122 52.5558 64.984 52.5558 69.5332C52.5558 73.5557 53.9804 76.5588 56.9774 78.919C59.2913 80.7413 63.9181 80.4813 68.0104 78.919C71.7707 77.1471 75.2791 74.5285 77.8039 69.4853C81.0343 63.0325 80.7777 56.6996 79.1262 50.2828Z" fill="#0A3969"/>
<path d="M79.593 51.1882C78.0272 43.2844 71.823 33.0775 71.823 33.0775C71.823 33.0775 73.7378 40.376 63.7579 54.1521C59.3756 60.3559 55.5825 65.2825 55.5825 69.616C55.5825 73.4477 56.8522 76.3085 59.523 78.5567C61.5852 80.2927 65.7085 80.045 69.3556 78.5567C72.7066 76.8689 75.8332 74.3744 78.0833 69.5703C80.9622 63.4236 81.0648 57.3008 79.593 51.1882Z" fill="#082E54"/>
<path d="M48.4333 56.4757C37.5789 68.6236 41.2318 75.3842 41.2318 75.3842C41.2318 75.3842 34.2852 70.8419 33.4041 60.0144C32.6736 51.0356 35.335 48.025 38.1529 43.3771C43.7889 35.613 46.7634 33.025 50.9381 26.8454C56 18.9229 56.7828 11.0532 56.7828 11.0532C56.7828 11.0532 61.5686 16.2514 63.0971 20.0849C65.961 27.268 64.4539 32.444 63.0971 36.0884C61.375 41.5813 54.852 48.9229 48.4333 56.4757Z" fill="#377ABE"/>
<path d="M46.8358 58.5773C38.2977 69.4087 41.171 75.4366 41.171 75.4366C41.171 75.4366 35.7068 71.3866 35.0138 61.7325C34.439 53.7267 36.5326 51.0425 38.7492 46.8983C43.1824 39.9756 46.3686 37.4612 50.3119 31.7042C56.2087 23.095 56.7827 11.0528 56.7827 11.0528C56.7827 11.0528 62.1035 17.0361 63.3058 20.4542C65.9672 28.0598 64.4539 33.8697 61.5837 39.4683C58.7136 45.0669 51.8847 51.8431 46.8358 58.5773Z" fill="#2B659F"/>
<path d="M47.3374 57.8486C38.2876 68.9401 41.0753 75.3838 41.0753 75.3838C41.0753 75.3838 36.9005 70.587 36.9005 60.9119C36.9005 52.9894 39.0401 51.1408 41.7537 46.5986C46.5966 39.9964 48.1202 39.0986 52.869 32.2324C58.0352 24.3626 56.7306 11.1056 56.7306 11.1056C56.7306 11.1056 62.0084 16.757 63.358 20.7183C65.9673 28.3767 64.2974 33.6584 61.8447 39.0986C59.2355 43.7993 54.017 49.6619 47.3374 57.8486Z" fill="#1F558A"/>
</g>
<g filter="url(#filter1_i_420_1355)">
<path d="M55.8308 85.4718C94.1856 85.4718 69.9426 81.3521 69.9426 81.3521C69.9426 81.3521 87.1507 84.5862 55.8308 84.5862C24.511 84.5862 42.551 81.3521 42.551 81.3521C42.551 81.3521 17.476 85.4718 55.8308 85.4718Z" fill="#396C21"/>
</g>
<g filter="url(#filter2_i_420_1355)">
<path d="M55.5376 88.9578C124.893 88.9578 81.0553 82.6198 81.0553 82.6198C81.0553 82.6198 112.172 87.5952 55.5376 87.5952C-1.09647 87.5952 31.5243 82.6198 31.5243 82.6198C31.5243 82.6198 -13.8177 88.9578 55.5376 88.9578Z" fill="#1B5500"/>
</g>
<path d="M25.6651 99.2042L25.9702 97.9775H28.1386L28.4437 99.2042H29.3672L27.9655 93.4878H26.1433L24.7499 99.2042H25.6651ZM27.2646 94.2639L27.9572 97.1597H26.1516L26.8524 94.2639H27.2646ZM32.2252 99.296C31.7965 99.296 31.4337 99.2403 31.1368 99.1291C30.8455 99.0123 30.6091 98.8343 30.4278 98.595C30.2519 98.3558 30.1227 98.0526 30.0402 97.6854C29.9633 97.3182 29.9248 96.8815 29.9248 96.3752C29.9248 95.8689 29.966 95.4295 30.0485 95.0567C30.1309 94.6839 30.2629 94.3752 30.4442 94.1304C30.6256 93.8801 30.862 93.6965 31.1533 93.5796C31.4446 93.4572 31.802 93.396 32.2252 93.396C32.6484 93.396 33.0058 93.4572 33.2971 93.5796C33.5884 93.6965 33.8248 93.8801 34.0062 94.1304C34.1875 94.3752 34.3168 94.6839 34.3937 95.0567C34.4761 95.4295 34.5173 95.8689 34.5173 96.3752C34.5173 97.0484 34.4459 97.5909 34.303 98.0025C34.1655 98.4087 33.9375 98.7202 33.6186 98.9372L34.3112 100.064L33.462 100.464L32.7282 99.2459C32.6237 99.2793 32.4561 99.296 32.2252 99.296ZM31.1533 97.9942C31.3457 98.3224 31.703 98.4865 32.2252 98.4865C32.489 98.4865 32.7061 98.4504 32.8766 98.378C33.0524 98.3002 33.1899 98.1778 33.2888 98.0109C33.3933 97.844 33.4647 97.627 33.5032 97.3599C33.5471 97.0929 33.5692 96.7674 33.5692 96.3836C33.5692 95.9997 33.5471 95.6715 33.5032 95.3989C33.4593 95.1262 33.3851 94.9009 33.2806 94.7229C33.1816 94.5449 33.0442 94.4141 32.8683 94.3307C32.6979 94.2472 32.4835 94.2055 32.2252 94.2055C31.9669 94.2055 31.7497 94.2472 31.5738 94.3307C31.4034 94.4141 31.266 94.5449 31.1616 94.7229C31.0571 94.9009 30.9829 95.1262 30.939 95.3989C30.895 95.6715 30.873 95.997 30.873 96.3752C30.873 97.1319 30.9664 97.6715 31.1533 97.9942ZM36.457 93.4878V97.3766C36.457 98.1166 36.8418 98.4865 37.6114 98.4865C38.3809 98.4865 38.7657 98.1166 38.7657 97.3766V93.4878H39.6891V97.3599C39.6891 98.0332 39.516 98.5255 39.1697 98.837C38.8234 99.143 38.304 99.296 37.6114 99.296C36.9132 99.296 36.3911 99.143 36.0448 98.837C35.7039 98.5255 35.5336 98.0332 35.5336 97.3599V93.4878H36.457ZM41.3744 99.2042L41.6795 97.9775H43.8479L44.153 99.2042H45.0765L43.6748 93.4878H41.8526L40.4592 99.2042H41.3744ZM42.9739 94.2639L43.6665 97.1597H41.8609L42.5617 94.2639H42.9739ZM48.1218 99.2042L48.4269 97.9775H50.5954L50.9005 99.2042H51.8239L50.4222 93.4878H48.6001L47.2066 99.2042H48.1218ZM49.7214 94.2639L50.414 97.1597H48.6083L49.3091 94.2639H49.7214ZM53.5441 99.2042V94.2973H53.6596L55.4158 99.2042H56.9823V93.4878H56.0671V98.3864H55.9435L54.2285 93.4878H52.6289V99.2042H53.5441ZM58.7101 99.2042L59.0151 97.9775H61.1836L61.4887 99.2042H62.4121L61.0105 93.4878H59.1883L57.7949 99.2042H58.7101ZM60.3096 94.2639L61.0022 97.1597H59.1965L59.8974 94.2639H60.3096ZM66.3833 98.378H64.1323V93.4878H63.2171V99.2042H66.3833V98.378ZM69.2081 96.8509L70.9643 93.4878H69.9419L68.7382 95.9413L67.5426 93.4878H66.512L68.2847 96.8509V99.2042H69.2081V96.8509ZM72.7192 94.314V99.2042H73.6427V94.314H75.234V93.4878H71.1114V94.314H72.7192ZM76.9108 99.2042V93.4878H75.9955V99.2042H76.9108ZM80.1062 99.296C79.694 99.296 79.3504 99.2403 79.0756 99.1291C78.8062 99.0179 78.5891 98.8426 78.4242 98.6034C78.2647 98.3641 78.1521 98.0582 78.0862 97.6854C78.0202 97.3071 77.9872 96.8536 77.9872 96.3252C77.9872 95.7967 78.0202 95.3488 78.0862 94.9816C78.1521 94.6088 78.2647 94.3056 78.4242 94.072C78.5891 93.8383 78.8062 93.6687 79.0756 93.5629C79.3504 93.4517 79.694 93.396 80.1062 93.396C80.3536 93.396 80.6092 93.4127 80.873 93.4461C81.1423 93.4795 81.4254 93.5323 81.7223 93.6047L81.6893 94.3557C81.2111 94.2667 80.7164 94.2222 80.2052 94.2222C79.9578 94.2222 79.7517 94.2556 79.5868 94.3223C79.4273 94.3891 79.2982 94.5059 79.1993 94.6728C79.1003 94.8341 79.0315 95.0511 78.9931 95.3238C78.9546 95.5908 78.9354 95.9302 78.9354 96.3419C78.9354 96.7535 78.9546 97.0957 78.9931 97.3683C79.0315 97.6409 79.0975 97.8607 79.191 98.0276C79.2844 98.1889 79.4108 98.3029 79.5703 98.3697C79.7352 98.4365 79.9413 98.4698 80.1887 98.4698C80.6888 98.4698 81.189 98.4281 81.6893 98.3447L81.714 99.1124C81.1588 99.2348 80.6228 99.296 80.1062 99.296ZM84.352 94.2055C83.6539 94.2055 83.3048 94.4531 83.3048 94.9482C83.3048 95.1986 83.3873 95.3794 83.5522 95.4906C83.7171 95.6019 84.0827 95.7354 84.6488 95.8912C84.9291 95.9691 85.1655 96.0525 85.3579 96.1416C85.5557 96.2306 85.7152 96.3362 85.8361 96.4587C85.957 96.5811 86.045 96.7285 86.0999 96.901C86.1549 97.0679 86.1824 97.2681 86.1824 97.5018C86.1824 98.1083 86.012 98.5589 85.6712 98.8537C85.3359 99.1485 84.8769 99.296 84.2942 99.296C84.0579 99.296 83.8106 99.2821 83.5522 99.2543C83.2994 99.2265 83.03 99.1848 82.7441 99.1291L82.4473 99.0707L82.538 98.328C83.2801 98.4281 83.8463 98.4782 84.2365 98.4782C84.9182 98.4782 85.2589 98.1722 85.2589 97.5602C85.2589 97.321 85.182 97.143 85.0281 97.0261C84.8742 96.9149 84.5279 96.7897 83.9892 96.6506C83.7199 96.5839 83.4835 96.506 83.2801 96.417C83.0822 96.3279 82.9173 96.2194 82.7854 96.0915C82.6535 95.9636 82.5545 95.8078 82.4885 95.6242C82.4226 95.435 82.3896 95.2125 82.3896 94.9566C82.3896 94.4336 82.5545 94.0414 82.8843 93.7799C83.2141 93.5185 83.6759 93.3877 84.2695 93.3877C84.6928 93.3877 85.193 93.4378 85.7701 93.5379L86.0587 93.588L85.9845 94.339C85.5998 94.2946 85.27 94.2612 84.9951 94.2389C84.7258 94.2166 84.5114 94.2055 84.352 94.2055Z" fill="#072B4F"/>
<path d="M80.0695 74.4585C79.368 75.5944 78.9658 77.5418 78.9658 77.5418C78.9658 77.5418 79.5571 76.439 82.3107 75.9192C83.5372 75.6722 84.5489 75.5121 85.0369 74.9879C85.4684 74.5245 85.6377 74.0326 85.5692 73.4538C85.5163 73.0069 84.9917 72.5632 84.3848 72.3242C83.7911 72.1434 83.1336 72.0859 82.3215 72.4085C81.2825 72.8213 80.5806 73.5501 80.0695 74.4585Z" fill="#07417D"/>
<path d="M32.0154 75.7474C32.7358 75.8805 33.8291 75.6597 33.8291 75.6597C33.8291 75.6597 33.1456 75.5808 32.3852 74.1549C32.0384 73.5234 31.7752 72.9924 31.4136 72.8388C31.094 72.7029 30.8058 72.7208 30.5142 72.8919C30.289 73.0241 30.149 73.4202 30.131 73.8155C30.1413 74.1901 30.2275 74.5722 30.5406 74.9539C30.9413 75.4422 31.4481 75.6689 32.0154 75.7474Z" fill="#07417D"/>
<defs>
<filter id="filter0_i_420_1355" x="33.2817" y="11.0528" width="47.245" height="92.3282" filterUnits="userSpaceOnUse" color-interpolation-filters="sRGB">
<feFlood flood-opacity="0" result="BackgroundImageFix"/>
<feBlend mode="normal" in="SourceGraphic" in2="BackgroundImageFix" result="shape"/>
<feColorMatrix in="SourceAlpha" type="matrix" values="0 0 0 0 0 0 0 0 0 0 0 0 0 0 0 0 0 0 127 0" result="hardAlpha"/>
<feOffset dy="22"/>
<feGaussianBlur stdDeviation="12.5"/>
<feComposite in2="hardAlpha" operator="arithmetic" k2="-1" k3="1"/>
<feColorMatrix type="matrix" values="0 0 0 0 0 0 0 0 0 0 0 0 0 0 0 0 0 0 0.38 0"/>
<feBlend mode="normal" in2="shape" result="effect1_innerShadow_420_1355"/>
</filter>
<filter id="filter1_i_420_1355" x="34.5" y="74.3521" width="43" height="11.1197" filterUnits="userSpaceOnUse" color-interpolation-filters="sRGB">
<feFlood flood-opacity="0" result="BackgroundImageFix"/>
<feBlend mode="normal" in="SourceGraphic" in2="BackgroundImageFix" result="shape"/>
<feColorMatrix in="SourceAlpha" type="matrix" values="0 0 0 0 0 0 0 0 0 0 0 0 0 0 0 0 0 0 127 0" result="hardAlpha"/>
<feOffset dy="-11"/>
<feGaussianBlur stdDeviation="3.5"/>
<feComposite in2="hardAlpha" operator="arithmetic" k2="-1" k3="1"/>
<feColorMatrix type="matrix" values="0 0 0 0 0 0 0 0 0 0 0 0 0 0 0 0 0 0 0.3 0"/>
<feBlend mode="normal" in2="shape" result="effect1_innerShadow_420_1355"/>
</filter>
<filter id="filter2_i_420_1355" x="16.9661" y="75.6198" width="77.7549" height="13.338" filterUnits="userSpaceOnUse" color-interpolation-filters="sRGB">
<feFlood flood-opacity="0" result="BackgroundImageFix"/>
<feBlend mode="normal" in="SourceGraphic" in2="BackgroundImageFix" result="shape"/>
<feColorMatrix in="SourceAlpha" type="matrix" values="0 0 0 0 0 0 0 0 0 0 0 0 0 0 0 0 0 0 127 0" result="hardAlpha"/>
<feOffset dy="-11"/>
<feGaussianBlur stdDeviation="3.5"/>
<feComposite in2="hardAlpha" operator="arithmetic" k2="-1" k3="1"/>
<feColorMatrix type="matrix" values="0 0 0 0 0 0 0 0 0 0 0 0 0 0 0 0 0 0 0.3 0"/>
<feBlend mode="normal" in2="shape" result="effect1_innerShadow_420_1355"/>
</filter>
</defs>
</svg>
